<svg xmlns="http://www.w3.org/2000/svg" viewBox="0 0 512 512">
  <defs>
    <linearGradient id="travelGrad" x1="0%" y1="0%" x2="100%" y2="100%">
      <stop offset="0%" style="stop-color:#3b82f6"/>
      <stop offset="100%" style="stop-color:#60a5fa"/>
    </linearGradient>
  </defs>
  <rect width="512" height="512" rx="96" fill="url(#travelGrad)"/>
  <!-- Airplane icon -->
  <g fill="white" transform="translate(256, 256) rotate(-45) translate(-256, -256)">
    <path d="M420 256c0 8-4 15-10 20l-100 70v80c0 12-8 22-20 24l-30 4c-4 0-8-2-10-6l-30-60h-40l-30 60c-2 4-6 6-10 6l-30-4c-12-2-20-12-20-24v-80l-100-70c-6-5-10-12-10-20s4-15 10-20l100-70v-80c0-12 8-22 20-24l30-4c4 0 8 2 10 6l30 60h40l30-60c2-4 6-6 10-6l30 4c12 2 20 12 20 24v80l100 70c6 5 10 12 10 20z"/>
  </g>
</svg>
