<svg xmlns="http://www.w3.org/2000/svg" viewBox="0 0 512 512">
  <defs>
    <linearGradient id="spectrum" x1="0%" y1="0%" x2="100%" y2="0%">
      <stop offset="0%" stop-color="#2dd4bf"/>
      <stop offset="20%" stop-color="#22d3ee"/>
      <stop offset="45%" stop-color="#818cf8"/>
      <stop offset="70%" stop-color="#c084fc"/>
      <stop offset="100%" stop-color="#f472b6"/>
    </linearGradient>
  </defs>
  <rect x="16" y="16" width="480" height="480" rx="96" fill="#1e293b"/>
  <rect x="16" y="16" width="480" height="480" rx="96" fill="none" stroke="url(#spectrum)" stroke-width="14" opacity="0.5"/>
  <polygon points="56,390 56,130 114,130 150,225 186,130 244,130 244,390 198,390 198,240 160,338 140,338 104,240 104,390" fill="url(#spectrum)" opacity="0.92"/>
  <polygon points="232,390 320,130 356,130 452,390 402,390 382,328 294,328 274,390" fill="url(#spectrum)" opacity="0.92"/>
  <polygon points="308,288 368,288 338,218" fill="#1e293b"/>
</svg>
